<svg id="Layer_1" height="512" viewBox="0 0 512 512" width="512" xmlns="http://www.w3.org/2000/svg" data-name="Layer 1"><path d="m368.6 75.09-51.25-46.68a133.351 133.351 0 0 0 -58.13-14.91c-1.16-.04-2.32-.05-3.49-.05s-2.32.01-3.48.04a134.038 134.038 0 0 0 .06 267.99c1.14.03 2.28.04 3.42.04 1.16 0 2.32-.01 3.48-.04a134.068 134.068 0 0 0 130.61-134v-.56a133.333 133.333 0 0 0 -21.22-71.83z" fill="#64bcbc"/><path d="m211.4 352.28-.86-14.76a73.742 73.742 0 0 0 -48.66-59.38l-4.78-1.67a52.6 52.6 0 0 1 -19.89-12.51l-24.14-24.21-7.12-7.15a32.829 32.829 0 0 0 -42.51-3.4l-20.5-68.43a26.626 26.626 0 0 0 -31.94-18.28l25.47 137.52a80.7 80.7 0 0 0 30.4 40.52l55.64 38.45a24.775 24.775 0 0 1 11.08 14.53l11.83 48.69 70.04-53.77a46.292 46.292 0 0 1 -4.06-16.15z" fill="#ffd8b7"/><path d="m71.98 180.09c-3.44-10.54-16.49-15.92-27.15-12.99l15.9 53.32 2.71 8.78a32.646 32.646 0 0 1 21.36-6.18v-.01z" fill="#ffdec5"/><path d="m104.86 211.01 8.41 28.54-.2.2-7.12-7.15a32.6 32.6 0 0 0 -21.15-9.58v-.01l-10.29-34.45c13.65 0 26.84 9.21 30.35 22.45z" fill="#eac7ad"/><path d="m437.49 188.56-10.29 34.45v.01a32.6 32.6 0 0 0 -21.15 9.58l-6.93 6.95 8.41-28.54c3.51-13.24 16.31-22.45 29.96-22.45z" fill="#eac7ad"/><path d="m469.06 160.77-20.5 68.43a32.829 32.829 0 0 0 -42.51 3.4l-6.93 6.95-24.33 24.41a52.6 52.6 0 0 1 -19.89 12.51l-4.78 1.67a73.742 73.742 0 0 0 -48.66 59.38l-.86 14.76a45.934 45.934 0 0 1 -4.12 16.11l70.96 54.47 10.97-49.35a24.775 24.775 0 0 1 11.08-14.53l55.64-38.45a80.7 80.7 0 0 0 30.4-40.52l25.47-137.52a26.626 26.626 0 0 0 -31.94 18.28z" fill="#ffd8b7"/><path d="m467.08 167.15c-10.66-2.94-23.62 2.4-27.06 12.94l-12.82 42.92v.01a32.646 32.646 0 0 1 21.36 6.18l2.71-8.78 15.88-53.25z" fill="#ffdec5"/><g fill="#7ce5e9"><path d="m190.01 84.41a170.313 170.313 0 0 0 -9.18 37.58l21.05 24.94.17-.01h53.68v-45.47a135.055 135.055 0 0 1 -65.72-17.04z"/><path d="m184.6 192.36-.47.8-27.65-45.68h-34.85a133.518 133.518 0 0 0 34.55 89.81 131.4 131.4 0 0 1 33.99-26.95 166.863 166.863 0 0 1 -5.57-17.98z"/><path d="m255.73 146.92h75.94c-3.21 25.81-6.89 46.31-11.69 62.93a133.489 133.489 0 0 0 -64.25-16.34z"/><path d="m389.82 146.92h-58.15q.555-4.47 1.1-9.16l32.64-55.7a37.32 37.32 0 0 0 3.19-6.97 133.333 133.333 0 0 1 21.22 71.83z"/><path d="m355 237.59a133.787 133.787 0 0 1 -95.79 43.89v-.01c32.1-15.01 49.52-32.71 60.77-71.62a133.013 133.013 0 0 1 35.02 27.74z"/><path d="m299.33 45.27a115.915 115.915 0 0 0 -40.11-31.77c-1.16-.04-2.32-.05-3.49-.05v88a133.594 133.594 0 0 0 50.11-9.65z"/><path d="m252.25 13.49c-29.49 14.11-50.54 39.44-62.24 70.92a132.756 132.756 0 0 1 -33.81-26.75 133.765 133.765 0 0 1 96.05-44.17z"/><path d="m255.73 269.33v12.19c-1.14 0-2.28-.01-3.42-.04v-.01c-29.34-14.03-50.37-39.69-62.14-71.13a134.98 134.98 0 0 1 65.56-16.83z"/></g><path d="m359.52 36.21a37.822 37.822 0 0 0 -59.39 45.85l32.64 55.7 32.64-55.7a37.32 37.32 0 0 0 3.19-6.97 37.822 37.822 0 0 0 -9.08-38.88z" fill="#e87187"/><path d="m205.88 146.93a26.726 26.726 0 0 0 -25.05-24.94c-.54-.03-1.09-.05-1.63-.05a26.736 26.736 0 0 0 -23.08 40.25l23.08 39.38 23.08-39.38a26.584 26.584 0 0 0 3.6-15.26z" fill="#e87187"/><path d="m332.77 46.13a16.755 16.755 0 1 1 -16.76 16.75 16.753 16.753 0 0 1 16.76-16.75z" fill="#b25f71"/><path d="m179.2 136.78a11.845 11.845 0 1 1 -11.85 11.85 11.856 11.856 0 0 1 11.85-11.85z" fill="#b25f71"/><path d="m163.59 373.51a24.775 24.775 0 0 0 -11.08-14.53l-55.64-38.45a80.7 80.7 0 0 1 -30.4-40.52l-19.743-106.6-3.787-12.64a26.626 26.626 0 0 0 -31.94-18.28l25.47 137.52a80.7 80.7 0 0 0 30.4 40.52l55.64 38.45a24.775 24.775 0 0 1 11.08 14.53l11.83 48.69 25.28-19.411z" fill="#d8b59c"/><path d="m111.941 392.908a5.972 5.972 0 0 1 -3.553-1.169l-9.967-7.339a6 6 0 1 1 7.117-9.662l9.967 7.341a6 6 0 0 1 -3.564 10.831zm-22.849-16.829a5.97 5.97 0 0 1 -3.553-1.169l-12.884-9.488a6 6 0 0 1 7.116-9.662l12.883 9.488a6 6 0 0 1 -3.562 10.831zm-25.767-18.979a5.972 5.972 0 0 1 -3.553-1.169l-12.883-9.489a6 6 0 1 1 7.117-9.662l12.883 9.489a6 6 0 0 1 -3.564 10.831zm-25.765-18.975a5.973 5.973 0 0 1 -3.554-1.169l-12.883-9.488a6 6 0 0 1 7.117-9.662l12.883 9.488a6 6 0 0 1 -3.563 10.831z" fill="#b0b5ca"/><g id="_Path_" data-name=" Path "><path d="m215.467 374.435a6 6 0 0 1 -5.455-3.5 52.121 52.121 0 0 1 -4.6-18.315l-.84-14.508a67.472 67.472 0 0 0 -44.662-54.311l-4.783-1.67a58.858 58.858 0 0 1 -22.159-13.942l-31.268-31.353a26.821 26.821 0 0 0 -33.023-3.936l22.716 20.814a193.325 193.325 0 0 1 23.646 26.018 6 6 0 1 1 -9.58 7.227 181.043 181.043 0 0 0 -22.174-24.4l-27.872-25.535a6 6 0 0 1 -.195-8.659 38.8 38.8 0 0 1 54.983 0l31.262 31.359a46.775 46.775 0 0 0 17.615 11.083l4.783 1.67a79.429 79.429 0 0 1 52.624 64.208c.023.162.039.325.049.489l.855 14.759a40.409 40.409 0 0 0 3.525 14 6 6 0 0 1 -5.447 8.508z" fill="#dbb59a"/></g><g id="_Path_2" data-name=" Path "><path d="m296.48 374.4a6 6 0 0 1 -5.447-8.508 40.358 40.358 0 0 0 3.578-13.955l.855-14.759c.01-.164.026-.327.049-.489a79.429 79.429 0 0 1 52.624-64.208l4.783-1.67a46.774 46.774 0 0 0 17.614-11.082l31.263-31.36a38.563 38.563 0 0 1 27.491-11.421 38.558 38.558 0 0 1 27.491 11.422 6 6 0 0 1 -.195 8.659l-27.872 25.538a181.043 181.043 0 0 0 -22.174 24.4 6 6 0 1 1 -9.58-7.227 193.325 193.325 0 0 1 23.646-26.018l22.717-20.822a26.821 26.821 0 0 0 -33.026 3.935l-31.262 31.365a58.857 58.857 0 0 1 -22.158 13.941l-4.783 1.67a67.472 67.472 0 0 0 -44.662 54.311l-.84 14.508a52.077 52.077 0 0 1 -4.657 18.275 6 6 0 0 1 -5.455 3.495z" fill="#dbb59a"/></g><path d="m395.172 393.643a6 6 0 0 1 -3.645-10.77l9.841-7.509a6 6 0 0 1 7.279 9.54l-9.84 7.508a5.972 5.972 0 0 1 -3.635 1.231zm22.561-17.214a6 6 0 0 1 -3.644-10.771l12.72-9.705a6 6 0 1 1 7.279 9.541l-12.72 9.7a5.975 5.975 0 0 1 -3.635 1.235zm25.441-19.41a6 6 0 0 1 -3.645-10.771l12.721-9.706a6 6 0 0 1 7.279 9.541l-12.72 9.706a5.977 5.977 0 0 1 -3.635 1.23zm25.44-19.412a6 6 0 0 1 -3.644-10.77l12.72-9.7a6 6 0 1 1 7.28 9.541l-12.721 9.7a5.974 5.974 0 0 1 -3.635 1.229z" fill="#b0b5ca"/><path d="m137.5 349.982a5.968 5.968 0 0 1 -3.406-1.065l-36.846-25.466a6 6 0 0 1 6.822-9.871l36.847 25.466a6 6 0 0 1 -3.416 10.936z" fill="#f4f8fc"/><path d="m86.221 314.541a5.973 5.973 0 0 1 -3.406-1.065l-4.354-3.009a6 6 0 1 1 6.822-9.871l4.354 3.008a6 6 0 0 1 -3.416 10.937z" fill="#f4f8fc"/><path d="m277.91 354.13v76.15l103 68.27v-65.34z" fill="#6994fe"/><path d="m131.09 433.21v65.34l103-68.27v-76.15z" fill="#6994fe"/><path d="m161 410.177-30 23.033v65.34l30-19.884z" fill="#5c7fc6"/></svg>