<svg id="Layer_1" enable-background="new 0 0 510 510" height="512" viewBox="0 0 510 510" width="512" xmlns="http://www.w3.org/2000/svg"><g id="XMLID_1847_"><path id="XMLID_1796_" d="m225 510c-4.654 0-160.348 0-165 0 0-12.685 0-437.315 0-450h165l15 225z" fill="#8493fb"/><path id="XMLID_1795_" d="m225 60h165v450h-165z" fill="#6666fa"/><path id="XMLID_1994_" d="m285 450c-4.655 0-160.348 0-165 0 0-12.685 0-437.315 0-450h165l15 225z" fill="#f9f9f9"/><path id="XMLID_1843_" d="m285 0h165v450h-165z" fill="#e2dff4"/><path id="XMLID_1991_" d="m180 60h30v30h-30z" fill="#8493fb"/><path id="XMLID_1990_" d="m180 120h30v30h-30z" fill="#f4d844"/><path id="XMLID_1989_" d="m180 180h30v30h-30z" fill="#bfe85f"/><path id="XMLID_1988_" d="m285 210c-14.981 0-30.019 0-45 0 0-10.492 0-19.508 0-30h45l15 15z" fill="#a7cafc"/><path id="XMLID_1987_" d="m285 150c-14.981 0-30.019 0-45 0 0-10.492 0-19.508 0-30h45l15 15z" fill="#a7cafc"/><path id="XMLID_1986_" d="m285 90c-14.981 0-30.019 0-45 0 0-10.492 0-19.508 0-30h45l15 15z" fill="#a7cafc"/><g fill="#8493fb"><path id="XMLID_1867_" d="m285 180h105v30h-105z"/><path id="XMLID_1848_" d="m285 120h105v30h-105z"/><path id="XMLID_1845_" d="m285 60h105v30h-105z"/></g><path id="XMLID_1985_" d="m180 240h105v30h-105z" fill="#dd4e4e"/><path id="XMLID_1984_" d="m285 330c-28.278 0-88.527 0-105 0 0-10.492 0-19.508 0-30h105l15 15z" fill="#8493fb"/><path id="XMLID_1983_" d="m285 390c-28.278 0-88.527 0-105 0 0-10.492 0-19.508 0-30h105l15 15z" fill="#dd4e4e"/><path id="XMLID_1858_" d="m285 300h105v30h-105z" fill="#6666fa"/><path id="XMLID_1846_" d="m285 360h105v30h-105z" fill="#c21456"/></g></svg>