<svg id="Capa_1" enable-background="new 0 0 512 512" height="512" viewBox="0 0 512 512" width="512" xmlns="http://www.w3.org/2000/svg"><g><g><path d="m510.791 459.572c-9.301-38.788-47.482-63.406-86.677-55.886l-124.945 24.003-85.292-70.068-141.557 39.09-72.32 38.1v47.539l107.525-35.925 174.51 65.575 229.965-47.385z" fill="#ffdfcf"/></g><g><g><g><g><path d="m354.812 17.493c-76.18 0-137.936 61.756-137.936 137.936s61.756 137.936 137.936 137.936c.279 0 .556-.009.835-.011l57.781-137.002-57.781-138.848c-.279-.002-.556-.011-.835-.011z" fill="#fff5f5"/><path d="m492.748 155.43c0-75.901-61.306-137.475-137.101-137.926v275.852c75.795-.451 137.101-62.026 137.101-137.926z" fill="#e6e9f2"/></g><g><path d="m340.425 92.234v68.998l-31.14 25.759 19.404 23.459 26.958-22.3 7.611-47.958-7.611-47.958z" fill="#143d66"/><path d="m340.425 254.097v27.242c-57.282-6.934-102.83-52.482-109.765-109.764h27.243v-30.444h-27.243c6.935-57.282 52.482-102.83 109.765-109.765v27.242h15.222l7.611-30.365-7.611-28.243c-86.213 0-156.353 70.14-156.353 156.353s70.14 156.353 156.353 156.353l10.901-21.121-10.901-37.488z" fill="#7d89e5"/></g><path d="m370.869 92.234h-15.222v95.916l15.222-12.591z" fill="#102840"/><path d="m355.647 0v58.609h15.222v-27.242c57.282 6.935 102.83 52.482 109.765 109.765h-27.244v30.444h27.243c-6.935 57.282-52.482 102.83-109.765 109.764v-27.242h-15.222v58.609c86.214-.001 156.354-70.141 156.354-156.354s-70.14-156.353-156.353-156.353z" fill="#706bef"/></g></g></g><path d="m304.435 364.026-159.717-75.137c-6.227-1.911-12.837-2.945-19.69-2.945-28.185 0-52.289 17.408-62.19 42.052l-62.838 21.754v85.061l167.33-55.712 109.495 47.278c17.128 7.395 37.019-.341 44.65-17.365 7.678-17.13.059-37.242-17.04-44.986z" fill="#ffcebf"/></g></svg>